<?xml version="1.0" encoding="UTF-8" standalone="no"?>
<!DOCTYPE svg PUBLIC "-//W3C//DTD SVG 1.1//EN"
 "http://www.w3.org/Graphics/SVG/1.1/DTD/svg11.dtd">
<!-- Generated by graphviz version 2.40.1 (20161225.0304)
 -->
<!-- Title: %3 Pages: 1 -->
<svg width="707pt" height="121pt"
 viewBox="0.00 0.00 707.17 121.00" xmlns="http://www.w3.org/2000/svg" xmlns:xlink="http://www.w3.org/1999/xlink">
<g id="graph0" class="graph" transform="scale(1 1) rotate(0) translate(4 117)">
<title>%3</title>
<polygon fill="#ffffff" stroke="transparent" points="-4,4 -4,-117 703.1742,-117 703.1742,4 -4,4"/>
<text text-anchor="middle" x="349.5871" y="-7.8" font-family="Times,serif" font-size="14.00" fill="#000000">SockSSL</text>
<!-- SockSSL\nClient -->
<g id="node1" class="node">
<title>SockSSL\nClient</title>
<polygon fill="none" stroke="#000000" points="197.692,-87 126.692,-87 126.692,-49 197.692,-49 197.692,-87"/>
<text text-anchor="middle" x="162.192" y="-71.8" font-family="Times,serif" font-size="14.00" fill="#000000">SockSSL</text>
<text text-anchor="middle" x="162.192" y="-56.8" font-family="Times,serif" font-size="14.00" fill="#000000">Client</text>
</g>
<!-- Internet -->
<g id="node5" class="node">
<title>Internet</title>
<ellipse fill="none" stroke="#000000" cx="332.6886" cy="-68" rx="38.9931" ry="18"/>
<text text-anchor="middle" x="332.6886" y="-64.3" font-family="Times,serif" font-size="14.00" fill="#000000">Internet</text>
</g>
<!-- SockSSL\nClient&#45;&gt;Internet -->
<g id="edge3" class="edge">
<title>SockSSL\nClient&#45;&gt;Internet</title>
<path fill="none" stroke="#000000" d="M197.9337,-68C222.697,-68 255.9895,-68 283.2864,-68"/>
<polygon fill="#000000" stroke="#000000" points="283.4245,-71.5001 293.4244,-68 283.4244,-64.5001 283.4245,-71.5001"/>
<text text-anchor="middle" x="245.692" y="-71.8" font-family="Times,serif" font-size="14.00" fill="#000000">Encrypted</text>
</g>
<!-- SockSSL\nServer -->
<g id="node2" class="node">
<title>SockSSL\nServer</title>
<polygon fill="none" stroke="#000000" points="538.6851,-87 467.6851,-87 467.6851,-49 538.6851,-49 538.6851,-87"/>
<text text-anchor="middle" x="503.1851" y="-71.8" font-family="Times,serif" font-size="14.00" fill="#000000">SockSSL</text>
<text text-anchor="middle" x="503.1851" y="-56.8" font-family="Times,serif" font-size="14.00" fill="#000000">Server</text>
</g>
<!-- google.com -->
<g id="node6" class="node">
<title>google.com</title>
<ellipse fill="none" stroke="#000000" cx="637.4296" cy="-95" rx="55.4913" ry="18"/>
<text text-anchor="middle" x="637.4296" y="-91.3" font-family="Times,serif" font-size="14.00" fill="#000000">google.com</text>
</g>
<!-- SockSSL\nServer&#45;&gt;google.com -->
<g id="edge5" class="edge">
<title>SockSSL\nServer&#45;&gt;google.com</title>
<path fill="none" stroke="#000000" d="M538.8077,-75.1646C551.4339,-77.7041 565.9832,-80.6303 579.9619,-83.4418"/>
<polygon fill="#000000" stroke="#000000" points="579.5103,-86.921 590.0041,-85.4615 580.8906,-80.0584 579.5103,-86.921"/>
</g>
<!-- dropbox.com -->
<g id="node7" class="node">
<title>dropbox.com</title>
<ellipse fill="none" stroke="#000000" cx="637.4296" cy="-41" rx="61.99" ry="18"/>
<text text-anchor="middle" x="637.4296" y="-37.3" font-family="Times,serif" font-size="14.00" fill="#000000">dropbox.com</text>
</g>
<!-- SockSSL\nServer&#45;&gt;dropbox.com -->
<g id="edge6" class="edge">
<title>SockSSL\nServer&#45;&gt;dropbox.com</title>
<path fill="none" stroke="#000000" d="M538.8077,-60.8354C550.4447,-58.4949 563.7153,-55.8258 576.6672,-53.2209"/>
<polygon fill="#000000" stroke="#000000" points="577.3636,-56.651 586.4772,-51.2478 575.9833,-49.7884 577.3636,-56.651"/>
</g>
<!-- Firefox -->
<g id="node3" class="node">
<title>Firefox</title>
<ellipse fill="none" stroke="#000000" cx="44.846" cy="-95" rx="38.1938" ry="18"/>
<text text-anchor="middle" x="44.846" y="-91.3" font-family="Times,serif" font-size="14.00" fill="#000000">Firefox</text>
</g>
<!-- Firefox&#45;&gt;SockSSL\nClient -->
<g id="edge1" class="edge">
<title>Firefox&#45;&gt;SockSSL\nClient</title>
<path fill="none" stroke="#000000" d="M79.419,-87.0451C91.155,-84.3448 104.4479,-81.2863 116.893,-78.4228"/>
<polygon fill="#000000" stroke="#000000" points="117.6855,-81.832 126.646,-76.1787 116.1158,-75.0102 117.6855,-81.832"/>
</g>
<!-- Dropbox -->
<g id="node4" class="node">
<title>Dropbox</title>
<ellipse fill="none" stroke="#000000" cx="44.846" cy="-41" rx="44.6926" ry="18"/>
<text text-anchor="middle" x="44.846" y="-37.3" font-family="Times,serif" font-size="14.00" fill="#000000">Dropbox</text>
</g>
<!-- Dropbox&#45;&gt;SockSSL\nClient -->
<g id="edge2" class="edge">
<title>Dropbox&#45;&gt;SockSSL\nClient</title>
<path fill="none" stroke="#000000" d="M83.9205,-49.9906C94.3287,-52.3854 105.6664,-54.9941 116.3992,-57.4636"/>
<polygon fill="#000000" stroke="#000000" points="115.9239,-60.9456 126.454,-59.7771 117.4935,-54.1238 115.9239,-60.9456"/>
</g>
<!-- Internet&#45;&gt;SockSSL\nServer -->
<g id="edge4" class="edge">
<title>Internet&#45;&gt;SockSSL\nServer</title>
<path fill="none" stroke="#000000" d="M371.8039,-68C397.234,-68 430.5019,-68 457.1976,-68"/>
<polygon fill="#000000" stroke="#000000" points="457.4476,-71.5001 467.4475,-68 457.4475,-64.5001 457.4476,-71.5001"/>
<text text-anchor="middle" x="419.6851" y="-71.8" font-family="Times,serif" font-size="14.00" fill="#000000">Encrypted</text>
</g>
</g>
</svg>
